<svg xmlns="http://www.w3.org/2000/svg" xmlns:xlink="http://www.w3.org/1999/xlink" width="500" zoomAndPan="magnify" viewBox="0 0 375 374.999991" height="500" preserveAspectRatio="xMidYMid meet" version="1.0"><defs><g/></defs><rect x="-37.5" width="450" fill="#ffffff" y="-37.499999" height="449.999989" fill-opacity="1"/><rect x="-37.5" width="450" fill="#000000" y="-37.499999" height="449.999989" fill-opacity="1"/><g fill="#ffffff" fill-opacity="1"><g transform="translate(124.353011, 231.695794)"><g><path d="M 173.90625 -74.265625 C 174.019531 -74.390625 174.140625 -74.421875 174.265625 -74.359375 C 174.390625 -74.296875 174.453125 -74.203125 174.453125 -74.078125 C 174.578125 -73.960938 174.515625 -73.78125 174.265625 -73.53125 C 163.847656 -69.238281 153.273438 -65.160156 142.546875 -61.296875 C 131.828125 -57.441406 121.078125 -53.800781 110.296875 -50.375 L 122.25 12.6875 C 122.488281 14.519531 121.691406 15.679688 119.859375 16.171875 C 119.484375 16.171875 119.113281 16.140625 118.75 16.078125 C 118.382812 16.023438 118.019531 15.9375 117.65625 15.8125 C 111.03125 11.519531 104.410156 7.289062 97.796875 3.125 C 91.179688 -1.039062 84.503906 -5.144531 77.765625 -9.1875 C 71.753906 -13.113281 65.070312 -17.191406 57.71875 -21.421875 C 50.363281 -25.648438 43.378906 -29.109375 36.765625 -31.796875 C 35.421875 -32.410156 35.050781 -33.332031 35.65625 -34.5625 C 35.78125 -35.175781 36.332031 -35.601562 37.3125 -35.84375 C 48.21875 -37.6875 59.15625 -39.863281 70.125 -42.375 C 81.09375 -44.882812 91.972656 -47.671875 102.765625 -50.734375 L 101.46875 -56.984375 C 97.0625 -77.203125 92.832031 -97.425781 88.78125 -117.65625 C 75.789062 -97.675781 62.097656 -78.003906 47.703125 -58.640625 C 33.304688 -39.273438 17.53125 -21.195312 0.375 -4.40625 C 0.25 -4.289062 0.0625 -4.289062 -0.1875 -4.40625 C -0.3125 -4.65625 -0.3125 -4.84375 -0.1875 -4.96875 C 7.90625 -14.894531 15.78125 -25.003906 23.4375 -35.296875 C 31.09375 -45.585938 38.476562 -56.003906 45.59375 -66.546875 C 52.945312 -76.960938 60.082031 -87.5625 67 -98.34375 C 73.925781 -109.132812 80.695312 -119.921875 87.3125 -130.703125 C 88.050781 -132.046875 89.21875 -132.71875 90.8125 -132.71875 C 91.175781 -132.71875 91.539062 -132.65625 91.90625 -132.53125 C 92.28125 -132.414062 92.648438 -132.234375 93.015625 -131.984375 C 93.992188 -131.367188 94.609375 -130.453125 94.859375 -129.234375 C 97.304688 -117.460938 99.660156 -105.664062 101.921875 -93.84375 C 104.191406 -82.019531 106.429688 -70.164062 108.640625 -58.28125 L 109.75 -52.765625 C 120.65625 -55.941406 131.46875 -59.304688 142.1875 -62.859375 C 152.914062 -66.421875 163.488281 -70.222656 173.90625 -74.265625 Z M 44.671875 -32.90625 C 50.796875 -30.082031 56.828125 -27.015625 62.765625 -23.703125 C 68.710938 -20.398438 74.566406 -17.035156 80.328125 -13.609375 C 86.085938 -10.171875 91.878906 -6.734375 97.703125 -3.296875 C 103.523438 0.128906 109.253906 3.617188 114.890625 7.171875 L 103.3125 -48.15625 C 93.625 -45.21875 83.910156 -42.460938 74.171875 -39.890625 C 64.429688 -37.316406 54.597656 -34.988281 44.671875 -32.90625 Z M 44.671875 -32.90625 "/></g></g></g><g fill="#ffffff" fill-opacity="1"><g transform="translate(132.898912, 278.029904)"><g><path d="M 17.5625 -1.234375 L 17.53125 0 L 9.921875 0 L 9.765625 -0.78125 C 10.222656 -1.050781 10.925781 -1.390625 11.875 -1.796875 L 10.859375 -4.40625 L 5.109375 -4.40625 L 4.046875 -1.546875 L 6.265625 -1.234375 L 6.234375 0 L -0.34375 0 L -0.484375 -0.78125 C -0.00390625 -1.082031 0.664062 -1.398438 1.53125 -1.734375 L 6.875 -14.875 L 6.578125 -15.625 L 9.75 -16.5 L 15.84375 -1.46875 Z M 10.15625 -6.234375 L 7.984375 -11.953125 L 5.8125 -6.234375 Z M 10.15625 -6.234375 "/></g></g></g><g fill="#ffffff" fill-opacity="1"><g transform="translate(150.28133, 278.029904)"><g><path d="M 18.0625 -15.140625 C 17.5625 -14.835938 16.910156 -14.515625 16.109375 -14.171875 L 16.015625 0 L 12.609375 0.3125 L 4.953125 -11.421875 L 5.328125 -8.4375 L 5.328125 -1.546875 L 7.453125 -1.234375 L 7.421875 0 L 0.78125 0 L 0.625 -0.78125 C 1.09375 -1.082031 1.78125 -1.410156 2.6875 -1.765625 L 2.6875 -14.421875 L 0.984375 -14.6875 L 1.015625 -15.921875 L 6.390625 -15.921875 L 6.359375 -15.890625 L 13.828125 -4.203125 L 13.46875 -7.28125 L 13.46875 -14.34375 L 11.125 -14.6875 L 11.15625 -15.921875 L 17.921875 -15.921875 Z M 18.0625 -15.140625 "/></g></g></g><g fill="#ffffff" fill-opacity="1"><g transform="translate(168.993415, 278.029904)"><g><path d="M 17.171875 -1.25 L 17.15625 0 L 12.28125 0 L 7.359375 -6.921875 L 6.359375 -5.875 L 6.359375 -1.53125 L 8.390625 -1.234375 L 8.375 0 L 0.78125 0 L 0.625 -0.78125 C 1.09375 -1.082031 1.78125 -1.410156 2.6875 -1.765625 L 2.6875 -14.421875 L 0.796875 -14.6875 L 0.828125 -15.921875 L 8.25 -15.921875 L 8.390625 -15.140625 C 7.796875 -14.785156 7.117188 -14.457031 6.359375 -14.15625 L 6.359375 -8.734375 L 11.703125 -14.4375 L 10.109375 -14.6875 L 10.140625 -15.921875 L 16.140625 -15.921875 L 16.28125 -15.140625 C 15.9375 -14.910156 15.265625 -14.613281 14.265625 -14.25 L 9.75 -9.453125 L 15.671875 -1.5 Z M 17.171875 -1.25 "/></g></g></g><g fill="#ffffff" fill-opacity="1"><g transform="translate(186.375833, 278.029904)"><g><path d="M 13.71875 -4.8125 C 13.75 -3.226562 13.648438 -1.625 13.421875 0 L 0.78125 0 L 0.625 -0.78125 C 1.09375 -1.082031 1.78125 -1.410156 2.6875 -1.765625 L 2.6875 -14.46875 L 0.890625 -14.6875 L 0.921875 -15.921875 L 13.546875 -15.921875 C 13.628906 -14.597656 13.5 -13.0625 13.15625 -11.3125 L 11.125 -11.3125 L 10.71875 -13.71875 L 6.359375 -14.03125 L 6.359375 -8.828125 L 11.5625 -9.234375 L 11.5625 -6.796875 L 6.359375 -7.015625 L 6.359375 -2 L 10.890625 -2.328125 L 11.6875 -4.953125 Z M 13.71875 -4.8125 "/></g></g></g><g fill="#ffffff" fill-opacity="1"><g transform="translate(201.292313, 278.029904)"><g><path d="M 13.78125 -1.734375 L 8.828125 0.390625 C 6.847656 0.453125 5.210938 0.0976562 3.921875 -0.671875 C 2.640625 -1.453125 1.707031 -2.46875 1.125 -3.71875 C 0.550781 -4.96875 0.265625 -6.316406 0.265625 -7.765625 C 0.265625 -9.242188 0.570312 -10.644531 1.1875 -11.96875 C 1.800781 -13.289062 2.71875 -14.359375 3.9375 -15.171875 C 5.164062 -15.992188 6.648438 -16.40625 8.390625 -16.40625 C 10.265625 -16.40625 11.925781 -15.894531 13.375 -14.875 C 13.40625 -14.351562 13.375 -13.65625 13.28125 -12.78125 C 13.1875 -11.914062 13.039062 -11.160156 12.84375 -10.515625 L 10.625 -10.515625 L 10.03125 -13.546875 C 8.925781 -14.023438 7.710938 -14.265625 6.390625 -14.265625 C 5.597656 -13.671875 5.003906 -12.832031 4.609375 -11.75 C 4.210938 -10.675781 4.015625 -9.539062 4.015625 -8.34375 C 4.015625 -6.425781 4.484375 -4.898438 5.421875 -3.765625 C 6.359375 -2.640625 7.625 -2.101562 9.21875 -2.15625 L 13.203125 -3.453125 Z M 13.78125 -1.734375 "/></g></g></g><g fill="#ffffff" fill-opacity="1"><g transform="translate(215.36264, 278.029904)"><g><path d="M 13.71875 -4.8125 C 13.75 -3.226562 13.648438 -1.625 13.421875 0 L 0.78125 0 L 0.625 -0.78125 C 1.09375 -1.082031 1.78125 -1.410156 2.6875 -1.765625 L 2.6875 -14.46875 L 0.890625 -14.6875 L 0.921875 -15.921875 L 13.546875 -15.921875 C 13.628906 -14.597656 13.5 -13.0625 13.15625 -11.3125 L 11.125 -11.3125 L 10.71875 -13.71875 L 6.359375 -14.03125 L 6.359375 -8.828125 L 11.5625 -9.234375 L 11.5625 -6.796875 L 6.359375 -7.015625 L 6.359375 -2 L 10.890625 -2.328125 L 11.6875 -4.953125 Z M 13.71875 -4.8125 "/></g></g></g></svg>